<?xml version="1.0" encoding="UTF-8"?>
<svg xmlns:xodm="http://www.corel.com/coreldraw/odm/2003" xmlns="http://www.w3.org/2000/svg" xmlns:xlink="http://www.w3.org/1999/xlink" version="1.1" id="Layer_1" x="0px" y="0px" viewBox="0 0 2500 782" style="enable-background:new 0 0 2500 782;" xml:space="preserve">
<style type="text/css">
	.st0{fill:#323D79;}
	.st1{fill:#A9CBEC;}
	.st2{fill:#77A2D6;}
	.st3{fill:#406CB2;}
</style>
<g id="Layer_x0020_1">
	<g id="_2805861464848">
		<path class="st0" d="M1521.6,192.2h-17.2l0,0c-6.1,0-12.1,2-16.2,7.1c-4,4-7.1,10.1-7.1,16.2v209.4    c-1,61.7-49.6,106.2-115.3,106.2l0,0c-67.8,0-115.3-46.5-115.3-112.3V215.5c0-6.1-2-12.1-7.1-16.2c-4-4-10.1-7.1-16.2-7.1l0,0    H1210c-12.1,0-22.3,10.1-22.3,22.3v206.4c0,52.6,17.2,96.1,50.6,126.5c29.3,27.3,71.8,43.5,118.4,44.5h14.2    c47.5-1,90-16.2,120.4-43.5c34.4-30.3,52.6-74.9,52.6-127.5V214.5C1543.9,202.3,1533.8,192.2,1521.6,192.2z"></path>
		<path class="st0" d="M1085.6,527.1L1085.6,527.1h-84c-66.8,0-114.3-46.5-115.3-112.3V215.5c0-12.1-10.1-22.3-22.3-22.3h-17.2    c-12.1,0-22.3,10.1-22.3,22.3v202.3c0,52.6,18.2,97.1,52.6,127.5c30.3,27.3,72.8,43.5,120.4,43.5h88c12.1,0,22.3-10.1,22.3-22.3    v-17.2c0-6.1-2-12.1-7.1-16.2c-4-4-10.1-7.1-16.2-7.1L1085.6,527.1z"></path>
		<path class="st0" d="M2436.2,391.5v1c0,80.9-58.7,142.6-137.6,142.6c-37.4,0-73.8-15.2-99.1-41.5c-26.3-27.3-39.5-63.7-39.5-102.2    v-1c0-80.9,58.7-142.6,137.6-142.6l0,0h1c36.4,0,72.8,15.2,98.1,41.5C2423,316.6,2436.2,353.1,2436.2,391.5z M2444.2,249.9    c-37.4-38.4-89-60.7-145.7-60.7c-54.6-1-108.2,21.2-146.7,60.7c-36.4,38.4-56.7,89-55.6,141.6v1c0,52.6,19.2,103.2,55.6,140.6    c37.4,38.4,89,60.7,146.7,60.7c1,0,2,0,2,0c53.6,0,106.2-22.3,143.7-60.7c36.4-38.4,56.7-89,55.6-141.6v-1    C2499.9,337.9,2480.7,287.3,2444.2,249.9z"></path>
		<path class="st0" d="M1954.6,233.7c-29.3-27.3-71.8-43.5-118.4-44.5h-14.2c-47.5,1-90,16.2-120.4,43.5    c-34.4,30.3-52.6,74.9-52.6,127.5v206.4c0,12.1,10.1,22.3,22.3,22.3h17.2l0,0c6.1,0,12.1-2,16.2-7.1c4-4,7.1-10.1,7.1-16.2V356.1    c1-61.7,49.6-106.2,115.3-106.2l0,0c67.8,0,115.3,46.5,115.3,112.3v203.3c0,6.1,2,12.1,7.1,16.2c4,4,10.1,6.1,16.2,7.1h17.2    c12.1,0,22.3-10.1,22.3-22.3V360.1C2005.2,307.5,1988,264,1954.6,233.7z"></path>
		<g>
			<path class="st1" d="M297.5,698c-118.4,0-213.5-96.1-213.5-213.5c0-118.4,96.1-213.5,213.5-213.5c118.4,0,213.5,96.1,213.5,213.5     C511,602.9,414.9,698,297.5,698z M297.5,187.2C132.6,187.2,0.1,320.7,0.1,484.6C0.1,649.5,133.7,782,297.5,782     C462.4,782,595,648.5,595,484.6C595,319.7,461.4,187.2,297.5,187.2z"></path>
			<path class="st2" d="M297.5,635.3c-118.4,0-213.5-96.1-213.5-213.5c0-118.4,96.1-213.5,213.5-213.5     c118.4,0,213.5,96.1,213.5,213.5C511,540.2,414.9,635.3,297.5,635.3z M297.5,124.4C132.6,124.4,0.1,258,0.1,421.9     c0,164.9,133.5,297.4,297.4,297.4c164.9,0,297.4-133.5,297.4-297.4C595,257,461.4,124.4,297.5,124.4z"></path>
			<path class="st3" d="M297.5,571.6c-118.4,0-213.5-96.1-213.5-213.5c0-118.4,96.1-213.5,213.5-213.5     c118.4,0,213.5,96.1,213.5,213.5C511,476.5,414.9,571.6,297.5,571.6z M297.5,60.7C132.6,60.7,0.1,194.2,0.1,358.1     c0,164.9,133.5,297.4,297.4,297.4C462.4,655.5,595,522,595,358.1C595,193.2,461.4,60.7,297.5,60.7z"></path>
			<path class="st0" d="M297.5,508.9c-118.4,0-213.5-95.1-213.5-212.4S180.2,84,297.5,84C415.9,84,511,179.1,511,296.4     S414.9,508.9,297.5,508.9z M297.5,0C132.6,0,0.1,132.5,0.1,296.4s133.5,296.4,297.4,296.4c164.9,0,297.4-132.5,297.4-296.4     S461.4,0,297.5,0z"></path>
		</g>
	</g>
</g>
</svg>
