<svg width="36" height="36" viewBox="0 0 36 36" fill="none" xmlns="http://www.w3.org/2000/svg">
<path d="M36 4.26249C34.6761 4.98429 33.2539 5.47199 31.7588 5.69243C33.2841 4.56877 34.4542 2.78574 35.0059 0.663271C33.579 1.705 31.9982 2.46191 30.316 2.86767C28.9684 1.10415 27.0499 0 24.9254 0C20.8475 0 17.5402 4.06936 17.5402 9.09072C17.5402 9.80081 17.6068 10.4914 17.7305 11.1586C11.5899 10.7782 6.15009 7.15943 2.50665 1.66208C1.87245 3.00813 1.50779 4.56877 1.50779 6.23085C1.50779 9.38334 2.81265 12.1671 4.79292 13.796C3.58161 13.7473 2.44323 13.3396 1.44754 12.6587V12.7758C1.44754 17.1787 3.99225 20.8521 7.3725 21.687C6.75099 21.8938 6.09936 22.003 5.42711 22.003C4.95147 22.003 4.48692 21.9484 4.03664 21.8431C4.97683 25.452 7.70387 28.0817 10.9367 28.1519C8.40782 30.5904 5.22258 32.0438 1.76306 32.0438C1.16691 32.0438 0.578699 32.0009 0 31.917C3.26927 34.4979 7.15053 36 11.3204 36C24.9079 36 32.3359 22.1532 32.3359 10.1441C32.3359 9.75399 32.328 9.35993 32.3138 8.96977C33.7565 7.68614 35.0091 6.08844 35.9968 4.26835L36 4.26249Z" fill="white"/>
</svg>
