<svg width="36" height="36" viewBox="0 0 36 36" fill="none" xmlns="http://www.w3.org/2000/svg">
<path d="M17.9995 1.49889C13.6697 1.45489 9.49958 3.1318 6.40561 6.16108C3.31164 9.19035 1.547 13.3241 1.49951 17.6539C1.5162 21.0756 2.61693 24.4041 4.6436 27.1611C6.67028 29.9181 9.51862 31.9619 12.7795 32.9989C13.6045 33.1489 13.9045 32.6539 13.9045 32.2189C13.9045 31.7839 13.9045 30.8239 13.9045 29.4739C9.31451 30.4489 8.33951 27.3139 8.33951 27.3139C8.03396 26.3297 7.38436 25.4884 6.50951 24.9439C5.00951 23.9539 6.62951 23.9689 6.62951 23.9689C7.14799 24.0382 7.64404 24.224 8.08048 24.5124C8.51691 24.8007 8.88239 25.1841 9.14951 25.6339C9.61501 26.4411 10.3788 27.0332 11.2765 27.2829C12.1742 27.5326 13.1341 27.4198 13.9495 26.9689C14.0334 26.1475 14.4053 25.3822 14.9995 24.8089C11.3395 24.4039 7.49951 23.0239 7.49951 16.8289C7.46678 15.2129 8.06388 13.6476 9.16451 12.4639C8.66325 11.0765 8.72244 9.54836 9.32951 8.20389C9.32951 8.20389 10.7245 7.76889 13.8295 9.85389C16.5324 9.13365 19.3767 9.13365 22.0795 9.85389C25.2295 7.76889 26.5795 8.20389 26.5795 8.20389C27.1866 9.54836 27.2458 11.0765 26.7445 12.4639C27.8707 13.6259 28.5002 15.1807 28.4995 16.7989C28.4995 23.0089 24.6295 24.3739 20.9995 24.7789C21.397 25.1648 21.704 25.634 21.8985 26.1527C22.0931 26.6714 22.1702 27.2268 22.1245 27.7789V32.2039C22.1245 32.2039 22.4245 33.1489 23.2495 32.9839C26.5011 31.9405 29.3399 29.8962 31.3603 27.1431C33.3807 24.39 34.4794 21.0688 34.4995 17.6539C34.452 13.3241 32.6874 9.19035 29.5934 6.16108C26.4994 3.1318 22.3293 1.45489 17.9995 1.49889Z" fill="white"/>
</svg>
