<svg width="36" height="36" viewBox="0 0 36 36" fill="none" xmlns="http://www.w3.org/2000/svg">
<path d="M35.9704 16.9384C35.3585 6.49866 25.8737 -1.54716 14.9491 0.252805C7.4261 1.49478 1.39689 7.59662 0.227044 15.1204C-0.456866 19.4763 0.443052 23.5982 2.4048 27.0002L0.802987 32.9581C0.443034 34.308 1.68484 35.532 3.01666 35.154L8.88391 33.534C11.5476 35.1 14.6612 36 17.9907 36C28.1414 36 36.5643 27.0542 35.9704 16.9384ZM26.7916 24.6962C26.6296 25.0202 26.4316 25.3262 26.1797 25.6142C25.7297 26.1002 25.2438 26.4602 24.7039 26.6762C24.1639 26.9102 23.57 27.0182 22.9401 27.0182C22.0222 27.0182 21.0323 26.8024 20.0065 26.3524C18.9626 25.9024 17.9367 25.3082 16.9109 24.5702C15.867 23.8142 14.8951 22.9683 13.9593 22.0503C13.0234 21.1143 12.1954 20.1243 11.4395 19.0983C10.7016 18.0724 10.1078 17.0464 9.67581 16.0204C9.24387 14.9944 9.02793 14.0045 9.02793 13.0685C9.02793 12.4565 9.1359 11.8626 9.35187 11.3226C9.56784 10.7646 9.90983 10.2606 10.3958 9.81061C10.9717 9.23462 11.6016 8.96463 12.2675 8.96463C12.5194 8.96463 12.7714 9.01861 13.0053 9.12661C13.2393 9.23461 13.4553 9.3966 13.6173 9.6306L15.705 12.5825C15.867 12.8165 15.993 13.0145 16.065 13.2125C16.155 13.4105 16.191 13.5905 16.191 13.7705C16.191 13.9865 16.119 14.2025 15.993 14.4184C15.867 14.6344 15.705 14.8504 15.4891 15.0664L14.8052 15.7864C14.6972 15.8944 14.6612 16.0024 14.6612 16.1464C14.6612 16.2184 14.6792 16.2904 14.6972 16.3624C14.7332 16.4344 14.7512 16.4884 14.7692 16.5424C14.9311 16.8484 15.2191 17.2264 15.6151 17.6944C16.029 18.1624 16.4609 18.6483 16.9289 19.1163C17.4148 19.6023 17.8828 20.0343 18.3687 20.4483C18.8366 20.8443 19.2326 21.1143 19.5385 21.2763C19.5925 21.2943 19.6465 21.3303 19.7005 21.3483C19.7725 21.3843 19.8445 21.3843 19.9345 21.3843C20.0965 21.3843 20.2045 21.3303 20.3124 21.2223L20.9963 20.5383C21.2303 20.3043 21.4463 20.1423 21.6443 20.0343C21.8602 19.9083 22.0582 19.8363 22.2922 19.8363C22.4722 19.8363 22.6521 19.8723 22.8501 19.9623C23.0481 20.0523 23.2641 20.1603 23.48 20.3223L26.4676 22.4463C26.7016 22.6083 26.8636 22.8063 26.9716 23.0223C27.0616 23.2563 27.1156 23.4722 27.1156 23.7242C27.0076 24.0302 26.9356 24.3722 26.7916 24.6962Z" fill="white"/>
</svg>
