<svg width="36" height="36" viewBox="0 0 36 36" fill="none" xmlns="http://www.w3.org/2000/svg">
<path d="M35.8841 10.6256C35.8621 9.11476 35.5822 7.61592 35.0464 6.20291C34.1088 3.79 32.1997 1.88203 29.7828 0.947999C28.3854 0.423107 26.908 0.141701 25.4127 0.109768C23.4896 0.0239496 22.8798 0 17.998 0C13.1162 0 12.4904 1.33828e-07 10.5813 0.109768C9.08796 0.141701 7.61062 0.423107 6.21324 0.947999C3.79631 1.88203 1.88516 3.79 0.949578 6.20291C0.423811 7.59796 0.139938 9.07285 0.11195 10.5637C0.0259884 12.4856 0 13.0944 0 17.9681C0 22.8418 -1.48945e-08 23.4645 0.11195 25.3724C0.141937 26.8653 0.423811 28.3382 0.949578 29.7372C1.88716 32.1481 3.79631 34.0561 6.21524 34.9901C7.60662 35.533 9.08396 35.8403 10.5833 35.8882C12.5084 35.9741 13.1182 36 18 36C22.8818 36 23.5076 36 25.4167 35.8882C26.91 35.8583 28.3874 35.5769 29.7868 35.052C32.2037 34.116 34.1128 32.208 35.0504 29.7971C35.5762 28.4 35.8581 26.9272 35.8881 25.4323C35.974 23.5124 36 22.9037 36 18.0279C35.996 13.1542 35.996 12.5355 35.8841 10.6256ZM17.986 27.1846C12.8803 27.1846 8.74411 23.0553 8.74411 17.9581C8.74411 12.8609 12.8803 8.73157 17.986 8.73157C23.0877 8.73157 27.2279 12.8609 27.2279 17.9581C27.2279 23.0553 23.0877 27.1846 17.986 27.1846ZM27.5957 10.5417C26.4023 10.5417 25.4407 9.57978 25.4407 8.39029C25.4407 7.2008 26.4023 6.23883 27.5957 6.23883C28.7852 6.23883 29.7488 7.2008 29.7488 8.39029C29.7488 9.57978 28.7852 10.5417 27.5957 10.5417Z" fill="white"/>
<path d="M17.9862 23.9508C21.3017 23.9508 23.9895 21.2675 23.9895 17.9575C23.9895 14.6474 21.3017 11.9641 17.9862 11.9641C14.6706 11.9641 11.9828 14.6474 11.9828 17.9575C11.9828 21.2675 14.6706 23.9508 17.9862 23.9508Z" fill="white"/>
</svg>
